<svg xmlns="http://www.w3.org/2000/svg" width="1403" height="205" fill="none"><path fill="#000" d="M135.01 120.272c53.689 0 51.057 52.373 51.057 80.27h-61.584c0-41.319-1.316-63.163-38.16-63.163H57.898v62.899H0V5.79h107.903c60.268 0 75.269 29.739 75.269 56.583 0 36.319-21.318 50.004-48.162 50.004h-21.317v7.895h21.317ZM57.9 96.586h40.002c19.475 0 27.371-11.316 27.371-25.002 0-13.685-8.422-25.002-27.37-25.002H57.898v50.004Zm484.475-50.003H278.156V82.9h264.219v38.161H278.156v38.687h264.219v40.793H220.257V5.79h322.118v40.793Zm12.022 153.959L629.402 4.474h79.743l78.427 196.068h-57.373l-11.843-28.95h-95.533l-10.527 28.95h-57.899Zm83.164-68.427h64.742l-16.581-40.266c-9.737-23.686-16.317-29.739-11.579-58.425h-10.528c4.475 28.686-2.368 34.213-11.316 58.425l-14.738 40.266ZM1041.6 5.79c81.06 0 119.48 42.898 119.48 97.376s-38.42 97.376-119.48 97.376H806.122V5.79H1041.6ZM864.021 155.275h177.059c38.42 0 60.79-15.528 60.79-52.109 0-38.161-22.37-52.11-60.79-52.11H864.021v104.219Zm428.109 49.214c-71.06 0-110.27-46.582-110.27-101.85C1181.86 46.846 1221.07 0 1292.13 0c71.32 0 110.8 46.846 110.8 102.639 0 55.268-39.48 101.85-110.8 101.85Zm-50.27-102.113c0 33.424 20.79 55.268 51.85 55.268 30 0 49.21-21.844 49.21-55.268 0-33.95-19.21-55.53-49.21-55.53-31.06 0-51.85 21.58-51.85 55.53Z"/></svg>