<svg xmlns="http://www.w3.org/2000/svg" width="162" height="21" fill="none"><path fill="#000" d="M13.762 12.29c5.472 0 5.204 5.338 5.204 8.182h-6.278c0-4.212-.134-6.439-3.89-6.439H5.903v6.412H0V.62h10.998c6.144 0 7.673 3.03 7.673 5.767 0 3.702-2.173 5.097-4.91 5.097H11.59v.805h2.173Zm-7.86-2.415h4.077c1.985 0 2.79-1.153 2.79-2.548s-.858-2.548-2.79-2.548H5.902v5.096Zm49.382-5.096H28.352V8.48h26.932v3.89H28.352v3.943h26.932v4.158H22.451V.62h32.833v4.158Zm1.226 15.693L64.154.486h8.128l7.994 19.986H74.43l-1.207-2.951h-9.738l-1.073 2.95H56.51Zm8.477-6.975h6.599l-1.69-4.104c-.993-2.415-1.664-3.032-1.18-5.956h-1.074c.456 2.924-.241 3.488-1.153 5.956l-1.502 4.104ZM106.17.62c8.263 0 12.179 4.373 12.179 9.926s-3.916 9.926-12.179 9.926H82.168V.62h24.002Zm25.536 20.254c-7.243 0-11.24-4.748-11.24-10.382 0-5.687 3.997-10.462 11.24-10.462C138.976.03 143 4.805 143 10.492c0 5.634-4.024 10.382-11.294 10.382Zm-5.123-10.408c0 3.407 2.119 5.633 5.284 5.633 3.058 0 5.017-2.226 5.017-5.633 0-3.46-1.959-5.66-5.017-5.66-3.165 0-5.284 2.2-5.284 5.66Zm18.92-9.386V0h6.433v1.08h-2.593v7.232h-1.25V1.08h-2.59ZM153.357 0h1.522l2.646 6.461h.098L160.269 0h1.522v8.312h-1.193V2.297h-.078L158.069 8.3h-.99l-2.451-6.007h-.077v6.019h-1.194V0Z"/></svg>